<svg width="40" height="41" viewBox="0 0 40 41" fill="none" xmlns="http://www.w3.org/2000/svg">
<rect y="0.5" width="40" height="40" rx="9" fill="#F0F0F0"/>
<path d="M23.8524 9.94443C24.3006 9.94338 24.6549 10.2915 24.6559 10.7557L24.657 11.547C27.5647 11.7749 29.4854 13.7562 29.4885 16.7947L29.5 25.6886C29.5042 29.0014 27.4229 31.0397 24.0869 31.045L15.9381 31.0555C12.6229 31.0597 10.5156 28.9729 10.5115 25.6506L10.5 16.8612C10.4958 13.8027 12.3488 11.8266 15.2565 11.5597L15.2555 10.7684C15.2544 10.3042 15.5984 9.95498 16.0569 9.95498C16.5155 9.95393 16.8594 10.3021 16.8604 10.7663L16.8615 11.5048L23.052 11.4964L23.051 10.7579C23.0499 10.2936 23.3939 9.94549 23.8524 9.94443ZM24.2776 24.9248H24.2672C23.7878 24.9364 23.4032 25.3383 23.4137 25.8236C23.4147 26.309 23.8014 26.7088 24.2808 26.7194C24.7695 26.7183 25.1656 26.3163 25.1645 25.8205C25.1645 25.3246 24.7675 24.9248 24.2776 24.9248ZM15.6901 24.9258C15.2107 24.9469 14.8355 25.3489 14.8365 25.8342C14.8584 26.3195 15.2544 26.6993 15.7338 26.6772C16.2039 26.6561 16.578 26.2541 16.5561 25.7688C16.5457 25.294 16.159 24.9248 15.6901 24.9258ZM19.9838 24.9205C19.5044 24.9427 19.1303 25.3436 19.1303 25.8289C19.1522 26.3142 19.5482 26.693 20.0276 26.6719C20.4966 26.6497 20.8718 26.2488 20.8499 25.7625C20.8395 25.2887 20.4528 24.9195 19.9838 24.9205ZM15.6849 21.1277C15.2055 21.1488 14.8313 21.5508 14.8324 22.0361C14.8532 22.5214 15.2503 22.9012 15.7297 22.8791C16.1987 22.858 16.5728 22.456 16.5509 21.9707C16.5405 21.4959 16.1549 21.1267 15.6849 21.1277ZM19.9797 21.0908C19.5003 21.1119 19.1251 21.5139 19.1261 21.9992C19.147 22.4845 19.544 22.8632 20.0234 22.8421C20.4924 22.82 20.8666 22.4191 20.8457 21.9338C20.8343 21.459 20.4487 21.0897 19.9797 21.0908ZM24.2735 21.0961C23.7941 21.1066 23.4189 21.497 23.4199 21.9823V21.9939C23.4303 22.4792 23.8264 22.8474 24.3068 22.8369C24.7758 22.8253 25.1499 22.4233 25.1395 21.938C25.1176 21.4738 24.7414 21.095 24.2735 21.0961ZM23.0541 13.1211L16.8636 13.1296L16.8646 13.9831C16.8646 14.4378 16.5217 14.7965 16.0632 14.7965C15.6046 14.7976 15.2596 14.4399 15.2596 13.9852L15.2586 13.1728C13.2264 13.3764 12.1018 14.5707 12.105 16.8591L12.106 17.1872L27.8846 17.1661V16.7968C27.8398 14.5285 26.7017 13.3385 24.6591 13.1612L24.6601 13.9736C24.6601 14.4272 24.3068 14.787 23.8587 14.787C23.4001 14.7881 23.0552 14.4294 23.0552 13.9757L23.0541 13.1211Z" fill="#B7B7B7"/>
</svg>
