<svg width="225" height="347" viewBox="0 0 225 347" fill="#EFEDED" xmlns="http://www.w3.org/2000/svg">
<mask id="mask0_27_2212" style="mask-type:alpha" maskUnits="userSpaceOnUse" x="0" y="0" width="351" height="347">
<path d="M286.619 307.325C211.579 367.882 101.008 356.956 39.6461 282.89C-21.7161 208.823 -10.6209 99.6926 64.4196 39.135C139.46 -21.4225 250.031 -10.4967 311.35 63.5699C372.713 137.636 361.617 246.767 286.619 307.325Z" fill="white"/>
</mask>
<g opacity="0.2" mask="url(#mask0_27_2212)">
<path d="M458.637 225.17L186.085 -103.831L188.118 -105.483L460.669 223.518L458.637 225.17Z" fill="#EFEDED"/>
<path d="M440.512 239.779L167.96 -89.2217L169.993 -90.8733L442.587 238.128L440.512 239.779Z" fill="#EFEDED"/>
<path d="M422.429 254.39L149.835 -74.6114L151.911 -76.2629L424.462 252.738L422.429 254.39Z" fill="#EFEDED"/>
<path d="M404.304 269.042L131.753 -59.9592L133.786 -61.6107L406.337 267.39L404.304 269.042Z" fill="#EFEDED"/>
<path d="M386.179 283.652L113.628 -45.3488L115.661 -47.0004L388.212 282.001L386.179 283.652Z" fill="#EFEDED"/>
<path d="M368.054 298.262L95.5029 -30.7389L97.5357 -32.3905L370.129 296.611L368.054 298.262Z" fill="#EFEDED"/>
<path d="M349.972 312.872L77.3781 -16.1291L79.4531 -17.7808L352.004 311.22L349.972 312.872Z" fill="#EFEDED"/>
<path d="M331.847 327.525L59.2955 -1.47643L61.3282 -3.12793L333.88 325.873L331.847 327.525Z" fill="#EFEDED"/>
<path d="M313.722 342.135L41.1707 13.1334L43.2033 11.4818L315.755 340.483L313.722 342.135Z" fill="#EFEDED"/>
<path d="M295.597 356.745L23.0457 27.7437L25.0783 26.0922L297.672 355.093L295.597 356.745Z" fill="#EFEDED"/>
<path d="M277.514 371.355L4.96313 42.3536L6.99585 40.7444L279.547 369.745L277.514 371.355Z" fill="#EFEDED"/>
<path d="M259.389 386.007L-13.1619 57.0058L-11.1292 55.3542L261.422 384.355L259.389 386.007Z" fill="#EFEDED"/>
<path d="M241.265 400.617L-31.2867 71.6156L-29.2541 69.964L243.297 398.965L241.265 400.617Z" fill="#EFEDED"/>
<path d="M223.14 415.227L-49.4116 86.226L-47.3366 84.5745L225.215 413.576L223.14 415.227Z" fill="#EFEDED"/>
<path d="M205.057 429.879L-67.4943 100.878L-65.4615 99.2266L207.09 428.228L205.057 429.879Z" fill="#EFEDED"/>
<path d="M186.932 444.49L-85.6191 115.488L-83.5864 113.837L188.965 442.838L186.932 444.49Z" fill="#EFEDED"/>
<path d="M168.807 459.1L-103.744 130.099L-101.711 128.447L170.84 457.448L168.807 459.1Z" fill="#EFEDED"/>
<path d="M449.532 231.818L176.98 -97.1831L179.013 -98.8347L451.564 230.166L449.532 231.818Z" fill="#EFEDED"/>
<path d="M431.407 246.428L158.856 -82.5728L160.888 -84.2244L433.482 244.777L431.407 246.428Z" fill="#EFEDED"/>
<path d="M413.324 261.038L140.731 -67.9631L142.806 -69.6146L415.357 259.387L413.324 261.038Z" fill="#EFEDED"/>
<path d="M395.199 275.69L122.648 -53.3108L124.681 -54.9624L397.232 274.039L395.199 275.69Z" fill="#EFEDED"/>
<path d="M377.074 290.301L104.523 -38.7005L106.556 -40.3521L379.107 288.649L377.074 290.301Z" fill="#EFEDED"/>
<path d="M358.95 304.911L86.3982 -24.0906L88.4309 -25.7422L361.025 303.259L358.95 304.911Z" fill="#EFEDED"/>
<path d="M340.867 319.52L68.2733 -9.48057L70.3484 -11.1322L342.9 317.869L340.867 319.52Z" fill="#EFEDED"/>
<path d="M322.742 334.173L50.1908 5.17202L52.2235 3.52039L324.775 332.522L322.742 334.173Z" fill="#EFEDED"/>
<path d="M304.617 348.783L32.0659 19.7816L34.0986 18.1301L306.65 347.131L304.617 348.783Z" fill="#EFEDED"/>
<path d="M286.492 363.393L13.9409 34.3917L15.9736 32.7401L288.567 361.741L286.492 363.393Z" fill="#EFEDED"/>
<path d="M268.41 378.003L-4.1416 49.0021L-2.10889 47.3928L270.442 376.394L268.41 378.003Z" fill="#EFEDED"/>
<path d="M250.285 392.655L-22.2666 63.6543L-20.2339 62.0027L252.317 391.004L250.285 392.655Z" fill="#EFEDED"/>
<path d="M232.16 407.266L-40.3915 78.2645L-38.3588 76.613L234.193 405.614L232.16 407.266Z" fill="#EFEDED"/>
<path d="M214.035 421.876L-58.5164 92.8744L-56.4413 91.2229L216.11 420.224L214.035 421.876Z" fill="#EFEDED"/>
<path d="M195.952 436.528L-76.599 107.527L-74.5663 105.875L197.985 434.876L195.952 436.528Z" fill="#EFEDED"/>
<path d="M177.827 451.138L-94.7239 122.137L-92.6912 120.485L179.86 449.487L177.827 451.138Z" fill="#EFEDED"/>
<path d="M159.703 465.748L-112.849 136.747L-110.816 135.095L161.735 464.096L159.703 465.748Z" fill="#EFEDED"/>
</g>
</svg>
