<svg width="40" height="41" viewBox="0 0 40 41" fill="none" xmlns="http://www.w3.org/2000/svg">
<rect y="0.5" width="40" height="40" rx="9" fill="#F0F0F0"/>
<path d="M28.4337 27.8395C29.0217 27.8395 29.5 28.3241 29.5 28.9198C29.5 29.5166 29.0217 30 28.4337 30H22.4063C21.8183 30 21.34 29.5166 21.34 28.9198C21.34 28.3241 21.8183 27.8395 22.4063 27.8395H28.4337ZM24.2537 11.7379L25.8107 12.9747C26.4492 13.474 26.8748 14.1321 27.0204 14.8243C27.1884 15.5856 27.0092 16.3334 26.5052 16.9802L17.2306 28.9739C16.805 29.5186 16.1777 29.8249 15.5057 29.8363L11.8093 29.8817C11.6077 29.8817 11.4397 29.7455 11.3949 29.5526L10.5548 25.9102C10.4092 25.2408 10.5548 24.5486 10.9804 24.0153L17.5555 15.5051C17.6675 15.3689 17.8691 15.3474 18.0035 15.4483L20.7702 17.6497C20.9494 17.7972 21.1958 17.8766 21.4535 17.8426C22.0023 17.7745 22.372 17.2752 22.3159 16.7419C22.2823 16.4696 22.1479 16.2426 21.9687 16.0724C21.9127 16.027 19.2804 13.9165 19.2804 13.9165C19.1124 13.7803 19.0788 13.5307 19.2132 13.3616L20.2549 12.0102C21.2182 10.7734 22.8984 10.6599 24.2537 11.7379Z" fill="#B7B7B7"/>
</svg>
