<svg width="241" height="442" viewBox="0 0 241 442" fill="#EFEDED" xmlns="http://www.w3.org/2000/svg">
<g opacity="0.2">
<mask id="mask0_26_1740" style="mask-type:alpha" maskUnits="userSpaceOnUse" x="-158" y="47" width="352" height="348">
<path d="M166.857 311.581C115.537 393.218 7.40676 418.775 -74.6747 368.637C-156.756 318.499 -181.686 211.676 -130.365 130.04C-79.0452 48.4033 29.0846 22.8463 111.126 72.9979C193.207 123.136 218.137 229.958 166.857 311.581Z" fill="white"/>
</mask>
<g mask="url(#mask0_26_1740)">
<path d="M302.892 178.038L-61.6947 -44.6779L-60.3082 -46.8999L304.279 175.816L302.892 178.038Z" fill="#EFEDED"/>
<path d="M290.491 197.74L-74.0959 -24.9759L-72.7093 -27.1979L291.917 195.504L290.491 197.74Z" fill="#EFEDED"/>
<path d="M278.13 217.429L-86.4968 -5.27331L-85.0702 -7.50902L279.517 215.207L278.13 217.429Z" fill="#EFEDED"/>
<path d="M265.743 237.171L-98.8442 14.4552L-97.4576 12.2332L267.129 234.949L265.743 237.171Z" fill="#EFEDED"/>
<path d="M253.342 256.874L-111.245 34.1577L-109.859 31.9358L254.728 254.652L253.342 256.874Z" fill="#EFEDED"/>
<path d="M240.94 276.576L-123.646 53.8597L-122.26 51.6378L242.367 274.34L240.94 276.576Z" fill="#EFEDED"/>
<path d="M228.579 296.264L-136.047 73.5618L-134.621 71.3261L229.966 294.042L228.579 296.264Z" fill="#EFEDED"/>
<path d="M216.192 316.007L-148.395 93.2907L-147.008 91.0688L217.579 313.785L216.192 316.007Z" fill="#EFEDED"/>
<path d="M203.791 335.709L-160.796 112.993L-159.409 110.771L205.178 333.487L203.791 335.709Z" fill="#EFEDED"/>
<path d="M191.39 355.411L-173.197 132.695L-171.81 130.473L192.817 353.176L191.39 355.411Z" fill="#EFEDED"/>
<path d="M179.029 375.1L-185.558 152.384L-184.157 150.202L180.429 372.918L179.029 375.1Z" fill="#EFEDED"/>
<path d="M166.642 394.842L-197.945 172.126L-196.558 169.904L168.028 392.62L166.642 394.842Z" fill="#EFEDED"/>
<path d="M154.241 414.544L-210.346 191.828L-208.96 189.606L155.627 412.322L154.241 414.544Z" fill="#EFEDED"/>
<path d="M141.84 434.247L-222.747 211.531L-221.321 209.295L143.266 432.011L141.84 434.247Z" fill="#EFEDED"/>
<path d="M129.492 453.975L-235.094 231.259L-233.708 229.037L130.879 451.753L129.492 453.975Z" fill="#EFEDED"/>
<path d="M117.091 473.677L-247.495 250.961L-246.109 248.739L118.478 471.456L117.091 473.677Z" fill="#EFEDED"/>
<path d="M104.69 493.38L-259.896 270.664L-258.51 268.442L106.077 491.158L104.69 493.38Z" fill="#EFEDED"/>
<path d="M296.438 187.282L-68.1484 -35.4341L-66.7619 -37.656L297.825 185.06L296.438 187.282Z" fill="#EFEDED"/>
<path d="M284.037 206.985L-80.5494 -15.7315L-79.1629 -17.9534L285.464 204.749L284.037 206.985Z" fill="#EFEDED"/>
<path d="M271.676 226.673L-92.9505 3.97052L-91.5239 1.73484L273.063 224.451L271.676 226.673Z" fill="#EFEDED"/>
<path d="M259.289 246.415L-105.298 23.699L-103.911 21.477L260.675 244.193L259.289 246.415Z" fill="#EFEDED"/>
<path d="M246.888 266.117L-117.699 43.4015L-116.312 41.1795L248.275 263.896L246.888 266.117Z" fill="#EFEDED"/>
<path d="M234.487 285.82L-130.1 63.1036L-128.713 60.8816L235.913 283.584L234.487 285.82Z" fill="#EFEDED"/>
<path d="M222.126 305.508L-142.501 82.8058L-141.074 80.57L223.512 303.286L222.126 305.508Z" fill="#EFEDED"/>
<path d="M209.739 325.251L-154.848 102.535L-153.462 100.313L211.125 323.029L209.739 325.251Z" fill="#EFEDED"/>
<path d="M197.337 344.953L-167.249 122.237L-165.863 120.015L198.724 342.731L197.337 344.953Z" fill="#EFEDED"/>
<path d="M184.936 364.655L-179.65 141.939L-178.264 139.717L186.363 362.419L184.936 364.655Z" fill="#EFEDED"/>
<path d="M172.575 384.344L-192.011 161.628L-190.611 159.446L173.976 382.162L172.575 384.344Z" fill="#EFEDED"/>
<path d="M160.188 404.086L-204.399 181.37L-203.012 179.148L161.575 401.864L160.188 404.086Z" fill="#EFEDED"/>
<path d="M147.787 423.788L-216.8 201.072L-215.413 198.85L149.174 421.566L147.787 423.788Z" fill="#EFEDED"/>
<path d="M135.386 443.49L-229.201 220.774L-227.774 218.539L136.813 441.255L135.386 443.49Z" fill="#EFEDED"/>
<path d="M123.039 463.219L-241.548 240.503L-240.162 238.281L124.425 460.997L123.039 463.219Z" fill="#EFEDED"/>
<path d="M110.638 482.922L-253.949 260.206L-252.562 257.983L112.024 480.7L110.638 482.922Z" fill="#EFEDED"/>
<path d="M98.2366 502.623L-266.35 279.908L-264.964 277.686L99.6232 500.402L98.2366 502.623Z" fill="#EFEDED"/>
</g>
</g>
</svg>
