<svg width="21" height="22" viewBox="0 0 21 22" fill="none" xmlns="http://www.w3.org/2000/svg">
<path d="M7.98433 18.9625L0.612451 11.6125C0.524951 11.525 0.463118 11.4302 0.426951 11.3281C0.390201 11.226 0.371826 11.1167 0.371826 11C0.371826 10.8833 0.390201 10.774 0.426951 10.6719C0.463118 10.5698 0.524951 10.475 0.612451 10.3875L7.98433 3.01563C8.18849 2.81146 8.4437 2.70938 8.74995 2.70938C9.0562 2.70938 9.3187 2.81876 9.53745 3.03751C9.7562 3.25626 9.86558 3.51146 9.86558 3.80313C9.86558 4.0948 9.7562 4.35001 9.53745 4.56876L3.1062 11L9.53745 17.4313C9.74162 17.6354 9.8437 17.8868 9.8437 18.1855C9.8437 18.4848 9.73433 18.7438 9.51558 18.9625C9.29683 19.1813 9.04162 19.2906 8.74995 19.2906C8.45828 19.2906 8.20308 19.1813 7.98433 18.9625Z" fill="#2B2B2B"/>
</svg>
