<svg width="28" height="28" viewBox="0 0 28 28" fill="none" xmlns="http://www.w3.org/2000/svg">
<g clip-path="url(#clip0_1911_1178)">
<path fill-rule="evenodd" clip-rule="evenodd" d="M13.883 4.98856C8.97086 4.98856 4.98877 8.97065 4.98877 13.8828C4.98877 18.795 8.97086 22.7771 13.883 22.7771C16.2861 22.7771 18.4666 21.824 20.0672 20.2753C20.0962 20.2363 20.1283 20.1989 20.1637 20.1635C20.1991 20.1282 20.2365 20.096 20.2755 20.067C21.8242 18.4664 22.7773 16.2859 22.7773 13.8828C22.7773 8.97065 18.7952 4.98856 13.883 4.98856ZM13.883 24.7771C16.5313 24.7771 18.9589 23.8321 20.847 22.261L25.5437 26.9578C25.9343 27.3483 26.5674 27.3483 26.9579 26.9578C27.3485 26.5672 27.3485 25.9341 26.9579 25.5435L22.2612 20.8468C23.8323 18.9587 24.7773 16.5311 24.7773 13.8828C24.7773 7.86608 19.8998 2.98856 13.883 2.98856C7.86629 2.98856 2.98877 7.86608 2.98877 13.8828C2.98877 19.8995 7.86629 24.7771 13.883 24.7771ZM10.1727 12.8826C9.62038 12.8826 9.17267 13.3303 9.17267 13.8826C9.17267 14.4348 9.62038 14.8826 10.1727 14.8826H17.5934C18.1456 14.8826 18.5934 14.4348 18.5934 13.8826C18.5934 13.3303 18.1456 12.8826 17.5934 12.8826H10.1727Z" fill="#1C8B6A"/>
</g>
<defs>
<clipPath id="clip0_1911_1178">
<rect width="27" height="27" fill="white" transform="translate(0.5 0.5)"/>
</clipPath>
</defs>
</svg>
