<svg width="28" height="28" viewBox="0 0 28 28" fill="none" xmlns="http://www.w3.org/2000/svg">
<g clip-path="url(#clip0_1911_1171)">
<path fill-rule="evenodd" clip-rule="evenodd" d="M16.3582 4.99039C21.2703 4.99039 25.2524 8.97248 25.2524 13.8846C25.2524 18.7968 21.2703 22.7789 16.3582 22.7789C13.955 22.7789 11.7744 21.8258 10.1739 20.277C10.1449 20.238 10.1128 20.2007 10.0774 20.1654C10.0421 20.13 10.0047 20.0979 9.96577 20.0689C8.41699 18.4683 7.46392 16.2878 7.46392 13.8846C7.46392 8.97248 11.446 4.99039 16.3582 4.99039ZM7.97996 20.8486C6.40886 18.9605 5.46392 16.5329 5.46392 13.8846C5.46392 7.86791 10.3414 2.99039 16.3582 2.99039C22.3749 2.99039 27.2524 7.86791 27.2524 13.8846C27.2524 19.9014 22.3749 24.7789 16.3582 24.7789C13.7099 24.7789 11.2823 23.8339 9.39417 22.2628L4.6974 26.9596C4.30688 27.3501 3.67371 27.3501 3.28319 26.9596C2.89267 26.569 2.89267 25.9359 3.28319 25.5454L7.97996 20.8486ZM21.0684 13.8846C21.0684 14.4369 20.6207 14.8846 20.0684 14.8846H17.3584V17.595C17.3584 18.1473 16.9107 18.595 16.3584 18.595C15.8061 18.595 15.3584 18.1473 15.3584 17.595V14.8846H12.6477C12.0954 14.8846 11.6477 14.4369 11.6477 13.8846C11.6477 13.3324 12.0954 12.8846 12.6477 12.8846H15.3584V10.1743C15.3584 9.622 15.8061 9.17428 16.3584 9.17428C16.9107 9.17428 17.3584 9.622 17.3584 10.1743V12.8846H20.0684C20.6207 12.8846 21.0684 13.3324 21.0684 13.8846Z" fill="#1C8B6A"/>
</g>
<defs>
<clipPath id="clip0_1911_1171">
<rect width="27" height="27" fill="white" transform="translate(0.5 0.5)"/>
</clipPath>
</defs>
</svg>
